<svg xmlns="http://www.w3.org/2000/svg" width="146" height="34" viewBox="0 0 146 34">
    <g fill="none" fill-rule="evenodd">
        <path fill="#3e4049" fill-rule="nonzero" d="M139.53 7.669h-.64v-3.16h-1.149v-.516h2.938v.516h-1.15zM142.967 7.669l-1.134-3.07h-.021c.03.456.045.884.045 1.282V7.67h-.58V3.993h.901l1.085 2.924h.016l1.118-2.924h.903V7.67h-.615V5.85a22.448 22.448 0 0 1 .04-1.247h-.02L143.53 7.67h-.564z"/>
        <path fill="#FE4F67" d="M7.556 0h18.888A7.556 7.556 0 0 1 34 7.556v18.888A7.556 7.556 0 0 1 26.444 34H7.556A7.556 7.556 0 0 1 0 26.444V7.556A7.556 7.556 0 0 1 7.556 0z"/>
        <path fill="#FFF" fill-rule="nonzero" d="M17 28.333c6.26 0 11.333-5.074 11.333-11.333 0-6.26-5.074-11.333-11.333-11.333C10.74 5.667 5.667 10.74 5.667 17c0 6.26 5.074 11.333 11.333 11.333zm0 1.89c-7.302 0-13.222-5.92-13.222-13.223C3.778 9.698 9.698 3.778 17 3.778S30.222 9.698 30.222 17 24.302 30.222 17 30.222z"/>
        <path fill="#FFF" fill-rule="nonzero" d="M20.865 18.423c-.41-.405-.921-.405-1.328 0-.31.308-.621.615-.926.928-.084.087-.154.105-.256.047-.2-.11-.415-.198-.608-.318-.9-.566-1.654-1.294-2.322-2.113-.331-.407-.626-.842-.832-1.333-.042-.099-.034-.164.047-.245.31-.3.613-.608.918-.916.426-.428.426-.928-.002-1.359l-.728-.73c-.25-.25-.498-.504-.751-.752-.41-.399-.921-.399-1.328.003-.313.308-.613.623-.932.926-.295.28-.443.62-.475 1.02-.05.65.11 1.263.334 1.86.46 1.237 1.159 2.335 2.007 3.342a12.415 12.415 0 0 0 4.111 3.216c.72.35 1.466.619 2.278.663.558.031 1.043-.11 1.432-.545.266-.298.566-.569.848-.853.417-.423.42-.934.005-1.352-.496-.498-.994-.994-1.492-1.49z"/>
        <path fill="#3e4049" d="M132.584 11.295c.474 0 .864.034 1.172.1l-.23 2.194a4.448 4.448 0 0 0-1.042-.12c-.942 0-1.705.307-2.289.921-.584.615-.876 1.412-.876 2.394v5.789h-2.354V11.496h1.843l.31 1.953h.12a4.389 4.389 0 0 1 1.438-1.573 3.416 3.416 0 0 1 1.908-.58zM112.533 20.87c.574 0 1.149-.09 1.723-.27v1.772c-.26.114-.596.21-1.007.286-.41.077-.836.115-1.277.115-2.23 0-3.345-1.175-3.345-3.525v-5.97h-1.512v-1.041l1.622-.861.802-2.344h1.452v2.464h3.155v1.783h-3.155v5.929c0 .567.142.986.425 1.257.284.27.656.405 1.117.405zM105.699 22.573h-2.364v-6.81c0-.855-.172-1.493-.516-1.914-.344-.42-.89-.63-1.637-.63-.995 0-1.723.293-2.184.88-.46.588-.69 1.573-.69 2.955v5.519h-2.354V11.496h1.842l.33 1.452h.121c.334-.527.808-.935 1.422-1.222a4.766 4.766 0 0 1 2.043-.43c2.658 0 3.987 1.352 3.987 4.056v7.22zM89.917 22.773c-1.722 0-3.07-.502-4.04-1.507-.972-1.005-1.458-2.389-1.458-4.152 0-1.809.45-3.231 1.352-4.266.901-1.035 2.14-1.553 3.716-1.553 1.462 0 2.617.445 3.465 1.333.848.888 1.272 2.11 1.272 3.665v1.272h-7.381c.033 1.075.323 1.901.87 2.479.548.577 1.32.866 2.314.866a8.54 8.54 0 0 0 1.828-.185 9.58 9.58 0 0 0 1.818-.616v1.913a7.226 7.226 0 0 1-1.743.58c-.587.114-1.258.171-2.013.171zm-.43-9.695c-.748 0-1.347.237-1.798.711-.45.474-.72 1.165-.806 2.073h5.027c-.013-.914-.233-1.607-.66-2.078-.428-.47-1.016-.706-1.763-.706zM120.706 22.773c-1.722 0-3.07-.502-4.041-1.507-.971-1.005-1.457-2.389-1.457-4.152 0-1.809.45-3.231 1.352-4.266.901-1.035 2.14-1.553 3.716-1.553 1.462 0 2.617.445 3.465 1.333.848.888 1.272 2.11 1.272 3.665v1.272h-7.382c.034 1.075.324 1.901.872 2.479.547.577 1.319.866 2.313.866a8.54 8.54 0 0 0 1.828-.185 9.58 9.58 0 0 0 1.818-.616v1.913a7.226 7.226 0 0 1-1.743.58c-.587.114-1.258.171-2.013.171zm-.43-9.695c-.748 0-1.348.237-1.798.711-.45.474-.72 1.165-.806 2.073h5.027c-.013-.914-.233-1.607-.66-2.078-.428-.47-1.016-.706-1.763-.706zM80.336 22.773c-1.676 0-2.95-.489-3.821-1.467-.872-.978-1.307-2.382-1.307-4.212 0-1.862.455-3.295 1.367-4.296.911-1.002 2.228-1.503 3.95-1.503 1.17 0 2.221.217 3.156.651l-.711 1.893c-.995-.387-1.816-.58-2.464-.58-1.916 0-2.875 1.271-2.875 3.815 0 1.242.24 2.175.717 2.8.477.624 1.176.936 2.098.936a6.02 6.02 0 0 0 2.974-.781v2.053c-.42.247-.87.424-1.347.53-.477.108-1.056.161-1.737.161zM70.824 21.32c0-.487.127-.86.38-1.12.254-.261.622-.391 1.102-.391.488 0 .858.135 1.112.405.254.27.38.64.38 1.107 0 .474-.128.85-.385 1.127s-.626.415-1.107.415c-.48 0-.848-.137-1.101-.41-.254-.274-.381-.651-.381-1.132zM68.754 22.573H66.4V6.989h2.354zM64.546 22.573h-2.353V6.989h2.353zM58.547 22.573l-.47-1.543h-.08c-.535.675-1.072 1.134-1.613 1.378-.54.243-1.235.365-2.083.365-1.089 0-1.938-.294-2.55-.881-.61-.588-.916-1.42-.916-2.494 0-1.142.424-2.003 1.272-2.584.848-.58 2.14-.898 3.876-.952l1.913-.06v-.59c0-.708-.165-1.237-.496-1.588-.33-.35-.843-.526-1.537-.526-.567 0-1.112.084-1.632.25a12.32 12.32 0 0 0-1.503.592l-.76-1.683a8.192 8.192 0 0 1 1.972-.716 9.08 9.08 0 0 1 2.023-.246c1.41 0 2.472.308 3.19.922.718.614 1.077 1.579 1.077 2.894v7.462h-1.683zm-3.505-1.603c.854 0 1.54-.238 2.058-.716.517-.477.776-1.147.776-2.008v-.961l-1.422.06c-1.108.04-1.915.225-2.419.556-.504.33-.756.836-.756 1.517 0 .494.147.876.44 1.147.295.27.735.405 1.323.405zM46.495 22.81c-1.676 0-2.95-.488-3.821-1.466-.872-.978-1.307-2.382-1.307-4.212 0-1.863.455-3.295 1.367-4.296.911-1.002 2.228-1.503 3.95-1.503 1.17 0 2.22.217 3.156.651l-.711 1.893c-.995-.387-1.817-.58-2.464-.58-1.916 0-2.875 1.271-2.875 3.815 0 1.242.24 2.175.716 2.8.478.624 1.177.936 2.099.936a6.02 6.02 0 0 0 2.974-.781v2.053c-.42.247-.87.424-1.347.53-.477.108-1.056.16-1.737.16z"/>
    </g>
</svg>
