<svg xmlns="http://www.w3.org/2000/svg" width="182" height="34" viewBox="0 0 182 34">
    <g fill="none" fill-rule="evenodd">
        <g fill="#3e4049">
            <path fill-rule="nonzero" d="M175.418 7.669h-.638v-3.16h-1.15v-.516h2.938v.516h-1.15zM178.855 7.669l-1.133-3.07h-.021c.03.456.045.884.045 1.282V7.67h-.58V3.993h.901l1.085 2.924h.016l1.118-2.924h.903V7.67h-.615V5.85a22.448 22.448 0 0 1 .04-1.247h-.02l-1.175 3.065h-.564z"/>
            <path d="M46.495 22.808c-1.676 0-2.95-.49-3.821-1.468-.872-.978-1.307-2.381-1.307-4.211 0-1.863.455-3.295 1.367-4.297.911-1.001 2.228-1.502 3.95-1.502 1.17 0 2.22.217 3.156.651l-.711 1.893c-.995-.387-1.817-.58-2.464-.58-1.916 0-2.875 1.271-2.875 3.815 0 1.242.24 2.175.716 2.8.478.624 1.177.936 2.099.936a6.02 6.02 0 0 0 2.974-.781v2.053c-.42.247-.87.424-1.347.53-.477.107-1.056.16-1.737.16zM60.875 17.049c0 1.81-.464 3.221-1.392 4.236-.928 1.015-2.22 1.523-3.876 1.523-1.035 0-1.95-.234-2.744-.701-.795-.468-1.406-1.139-1.833-2.013-.427-.875-.641-1.89-.641-3.045 0-1.796.46-3.198 1.382-4.207.921-1.008 2.22-1.512 3.896-1.512 1.602 0 2.871.516 3.806 1.547.935 1.032 1.402 2.423 1.402 4.172zm-8.062 0c0 2.557.944 3.836 2.834 3.836 1.87 0 2.804-1.279 2.804-3.836 0-2.53-.941-3.796-2.824-3.796-.988 0-1.704.327-2.148.982-.444.654-.666 1.592-.666 2.814zM71.813 22.607h-2.364v-6.81c0-.855-.172-1.492-.516-1.913-.343-.42-.89-.63-1.637-.63-.995 0-1.723.293-2.183.88-.461.588-.691 1.573-.691 2.955v5.518h-2.354V11.53h1.843l.33 1.453h.12c.334-.528.808-.935 1.423-1.222a4.765 4.765 0 0 1 2.043-.43c2.657 0 3.986 1.351 3.986 4.055v7.221zM77.892 20.905c.574 0 1.149-.09 1.723-.27v1.772c-.26.114-.596.209-1.007.286-.41.076-.836.115-1.277.115-2.23 0-3.345-1.175-3.345-3.526v-5.969h-1.512v-1.041l1.622-.862.801-2.343h1.453v2.463h3.154v1.783H76.35v5.93c0 .567.142.986.425 1.256.284.27.656.406 1.117.406zM88.019 21.065c-.534.674-1.072 1.133-1.613 1.377-.54.244-1.235.366-2.083.366-1.088 0-1.938-.294-2.549-.882-.61-.587-.916-1.418-.916-2.493 0-1.142.424-2.004 1.272-2.584.848-.581 2.14-.898 3.876-.952l1.913-.06v-.59c0-.709-.165-1.238-.496-1.588-.33-.35-.843-.526-1.537-.526-.568 0-1.112.083-1.633.25-.52.167-1.021.364-1.502.591l-.761-1.682a8.195 8.195 0 0 1 1.973-.716 9.08 9.08 0 0 1 2.023-.246c1.409 0 2.472.307 3.19.922.718.614 1.076 1.579 1.076 2.894v7.461H88.57l-.47-1.542h-.081zm-2.955-.06c.855 0 1.541-.239 2.059-.716.517-.478.776-1.147.776-2.008v-.962l-1.422.06c-1.109.04-1.915.226-2.419.556-.504.33-.756.837-.756 1.518 0 .494.147.876.44 1.146.294.27.735.406 1.322.406zM96.493 22.808c-1.676 0-2.95-.49-3.82-1.468-.872-.978-1.308-2.381-1.308-4.211 0-1.863.456-3.295 1.367-4.297.912-1.001 2.229-1.502 3.952-1.502 1.168 0 2.22.217 3.154.651l-.71 1.893c-.996-.387-1.817-.58-2.464-.58-1.917 0-2.875 1.271-2.875 3.815 0 1.242.239 2.175.716 2.8.478.624 1.177.936 2.098.936a6.02 6.02 0 0 0 2.975-.781v2.053c-.42.247-.87.424-1.347.53-.478.107-1.057.16-1.738.16zM106.308 20.905c.574 0 1.149-.09 1.723-.27v1.772a4.75 4.75 0 0 1-1.007.286c-.41.076-.836.115-1.277.115-2.23 0-3.345-1.175-3.345-3.526v-5.969h-1.512v-1.041l1.622-.862.802-2.343h1.452v2.463h3.155v1.783h-3.155v5.93c0 .567.142.986.425 1.256.284.27.656.406 1.117.406zM109.516 21.355c0-.487.127-.86.38-1.121.254-.26.622-.39 1.102-.39.488 0 .858.134 1.112.405.254.27.38.64.38 1.106 0 .475-.128.85-.385 1.127s-.626.416-1.107.416c-.48 0-.848-.137-1.102-.41-.253-.275-.38-.652-.38-1.133zM118.272 22.808c-1.676 0-2.95-.49-3.82-1.468-.872-.978-1.308-2.381-1.308-4.211 0-1.863.456-3.295 1.367-4.297.912-1.001 2.229-1.502 3.951-1.502 1.169 0 2.22.217 3.155.651l-.71 1.893c-.996-.387-1.817-.58-2.465-.58-1.916 0-2.874 1.271-2.874 3.815 0 1.242.238 2.175.716 2.8.477.624 1.177.936 2.098.936a6.02 6.02 0 0 0 2.975-.781v2.053c-.42.247-.87.424-1.347.53-.478.107-1.057.16-1.738.16zM124.78 17.6c.032 1.075.323 1.901.87 2.479.548.577 1.319.866 2.314.866a8.54 8.54 0 0 0 1.828-.185 9.581 9.581 0 0 0 1.817-.616v1.913a7.225 7.225 0 0 1-1.742.58c-.588.114-1.259.17-2.013.17-1.723 0-3.07-.502-4.041-1.507-.972-1.004-1.458-2.388-1.458-4.15 0-1.81.45-3.233 1.352-4.267.902-1.035 2.14-1.553 3.716-1.553 1.462 0 2.617.444 3.465 1.332.848.888 1.272 2.11 1.272 3.666V17.6h-7.38zm2.643-4.487c-.748 0-1.347.237-1.798.711-.45.474-.72 1.165-.806 2.073h5.028c-.014-.915-.234-1.607-.661-2.078-.428-.47-1.015-.706-1.763-.706zM142.88 22.607h-2.364v-6.81c0-.855-.172-1.492-.516-1.913-.344-.42-.89-.63-1.638-.63-.994 0-1.722.293-2.183.88-.46.588-.691 1.573-.691 2.955v5.518h-2.354V11.53h1.843l.33 1.453h.12c.335-.528.809-.935 1.423-1.222a4.766 4.766 0 0 1 2.043-.43c2.658 0 3.986 1.351 3.986 4.055v7.221zM149.147 20.905c.575 0 1.149-.09 1.723-.27v1.772c-.26.114-.596.209-1.007.286-.41.076-.836.115-1.277.115-2.23 0-3.345-1.175-3.345-3.526v-5.969h-1.512v-1.041l1.623-.862.8-2.343h1.453v2.463h3.155v1.783h-3.155v5.93c0 .567.142.986.426 1.256.283.27.656.406 1.116.406zM154.28 17.6c.033 1.075.323 1.901.87 2.479.548.577 1.32.866 2.314.866a8.54 8.54 0 0 0 1.828-.185 9.581 9.581 0 0 0 1.818-.616v1.913a7.228 7.228 0 0 1-1.743.58c-.587.114-1.258.17-2.013.17-1.723 0-3.07-.502-4.041-1.507-.971-1.004-1.457-2.388-1.457-4.15 0-1.81.45-3.233 1.352-4.267.901-1.035 2.14-1.553 3.715-1.553 1.463 0 2.618.444 3.466 1.332.848.888 1.272 2.11 1.272 3.666V17.6h-7.382zm2.643-4.487c-.747 0-1.347.237-1.797.711-.45.474-.72 1.165-.807 2.073h5.028c-.013-.915-.234-1.607-.66-2.078-.428-.47-1.016-.706-1.764-.706zM168.442 11.33c.474 0 .865.034 1.172.1l-.23 2.194a4.45 4.45 0 0 0-1.042-.12c-.941 0-1.704.307-2.288.92-.584.615-.877 1.413-.877 2.395v5.788h-2.353V11.53h1.843l.31 1.953h.12a4.387 4.387 0 0 1 1.437-1.572 3.416 3.416 0 0 1 1.908-.58z"/>
        </g>
        <path fill="#F5A623" d="M7.556 0h18.888A7.556 7.556 0 0 1 34 7.556v18.888A7.556 7.556 0 0 1 26.444 34H7.556A7.556 7.556 0 0 1 0 26.444V7.556A7.556 7.556 0 0 1 7.556 0z"/>
        <path fill="#FFF" fill-rule="nonzero" d="M17 28.333c6.26 0 11.333-5.074 11.333-11.333 0-6.26-5.074-11.333-11.333-11.333C10.74 5.667 5.667 10.74 5.667 17c0 6.26 5.074 11.333 11.333 11.333zm0 1.89c-7.302 0-13.222-5.92-13.222-13.223C3.778 9.698 9.698 3.778 17 3.778S30.222 9.698 30.222 17 24.302 30.222 17 30.222z"/>
        <path fill="#FFF" fill-rule="nonzero" d="M20.865 18.423c-.41-.405-.921-.405-1.328 0-.31.308-.621.615-.926.928-.084.087-.154.105-.256.047-.2-.11-.415-.198-.608-.318-.9-.566-1.654-1.294-2.322-2.113-.331-.407-.626-.842-.832-1.333-.042-.099-.034-.164.047-.245.31-.3.613-.608.918-.916.426-.428.426-.928-.002-1.359l-.728-.73c-.25-.25-.498-.504-.751-.752-.41-.399-.921-.399-1.328.003-.313.308-.613.623-.932.926-.295.28-.443.62-.475 1.02-.05.65.11 1.263.334 1.86.46 1.237 1.159 2.335 2.007 3.342a12.415 12.415 0 0 0 4.111 3.216c.72.35 1.466.619 2.278.663.558.031 1.043-.11 1.432-.545.266-.298.566-.569.848-.853.417-.423.42-.934.005-1.352-.496-.498-.994-.994-1.492-1.49z"/>
    </g>
</svg>
