<?xml version="1.0" encoding="UTF-8"?>
<svg width="12px" height="12px" viewBox="0 0 12 12" version="1.1" xmlns="http://www.w3.org/2000/svg" xmlns:xlink="http://www.w3.org/1999/xlink">
    <!-- Generator: Sketch 48.2 (47327) - http://www.bohemiancoding.com/sketch -->
    <title>close_light_grey</title>
    <defs></defs>
    <g id="close_light_grey" stroke="none" stroke-width="1" fill="none" fill-rule="evenodd">
        <path d="M6,4.35095645 L10.1271145,0.223841905 C10.4282067,-0.0772502133 10.9156121,-0.0780115468 11.2213977,0.227774023 L11.772226,0.778602323 C12.0754897,1.08186609 12.0710607,1.57798285 11.7761581,1.87288545 L7.64904355,6 L11.7761581,10.1271145 C12.0772502,10.4282067 12.0780115,10.9156121 11.772226,11.2213977 L11.2213977,11.772226 C10.9181339,12.0754897 10.4220171,12.0710607 10.1271145,11.7761581 L6,7.64904355 L1.87288545,11.7761581 C1.57179333,12.0772502 1.08438789,12.0780115 0.778602323,11.772226 L0.227774023,11.2213977 C-0.0754897442,10.9181339 -0.0710606938,10.4220171 0.223841905,10.1271145 L4.35095645,6 L0.223841905,1.87288545 C-0.0772502133,1.57179333 -0.0780115468,1.08438789 0.227774023,0.778602323 L0.778602323,0.227774023 C1.08186609,-0.0754897442 1.57798285,-0.0710606938 1.87288545,0.223841905 L6,4.35095645 Z" fill="#A7AABC"></path>
    </g>
</svg>
