<svg xmlns="http://www.w3.org/2000/svg" width="152" height="34" viewBox="0 0 152 34">
    <g fill="none" fill-rule="evenodd">
        <path fill="#3e4049" fill-rule="nonzero" d="M145.574 7.669h-.639v-3.16h-1.15v-.516h2.938v.516h-1.149zM149.011 7.669l-1.133-3.07h-.022c.03.456.045.884.045 1.282V7.67h-.579V3.993h.9l1.086 2.924h.016l1.117-2.924h.904V7.67h-.615V5.85a22.446 22.446 0 0 1 .04-1.247h-.021l-1.174 3.065h-.564z"/>
        <path fill="#00C75F" d="M7.556 0h18.888A7.556 7.556 0 0 1 34 7.556v18.888A7.556 7.556 0 0 1 26.444 34H7.556A7.556 7.556 0 0 1 0 26.444V7.556A7.556 7.556 0 0 1 7.556 0z"/>
        <path fill="#FFF" fill-rule="nonzero" d="M17 28.333c6.26 0 11.333-5.074 11.333-11.333 0-6.26-5.074-11.333-11.333-11.333C10.74 5.667 5.667 10.74 5.667 17c0 6.26 5.074 11.333 11.333 11.333zm0 1.89c-7.302 0-13.222-5.92-13.222-13.223C3.778 9.698 9.698 3.778 17 3.778S30.222 9.698 30.222 17 24.302 30.222 17 30.222z"/>
        <path fill="#FFF" fill-rule="nonzero" d="M20.865 18.423c-.41-.405-.921-.405-1.328 0-.31.308-.621.615-.926.928-.084.087-.154.105-.256.047-.2-.11-.415-.198-.608-.318-.9-.566-1.654-1.294-2.322-2.113-.331-.407-.626-.842-.832-1.333-.042-.099-.034-.164.047-.245.31-.3.613-.608.918-.916.426-.428.426-.928-.002-1.359l-.728-.73c-.25-.25-.498-.504-.751-.752-.41-.399-.921-.399-1.328.003-.313.308-.613.623-.932.926-.295.28-.443.62-.475 1.02-.05.65.11 1.263.334 1.86.46 1.237 1.159 2.335 2.007 3.342a12.415 12.415 0 0 0 4.111 3.216c.72.35 1.466.619 2.278.663.558.031 1.043-.11 1.432-.545.266-.298.566-.569.848-.853.417-.423.42-.934.005-1.352-.496-.498-.994-.994-1.492-1.49z"/>
        <path fill="#3e4049" d="M120.596 11.295c1.382 0 2.458.501 3.23 1.503.77 1.001 1.156 2.407 1.156 4.216 0 1.816-.39 3.23-1.172 4.242-.78 1.011-1.866 1.517-3.255 1.517-1.402 0-2.49-.504-3.265-1.512h-.16l-.43 1.312h-1.763V6.989h2.353v3.706c0 .273-.013.68-.04 1.221-.026.541-.046.885-.06 1.032h.1c.748-1.102 1.85-1.653 3.306-1.653zm-.611 1.923c-.949 0-1.631.28-2.049.837-.417.557-.632 1.49-.646 2.799v.16c0 1.349.214 2.325.641 2.93.428.604 1.126.906 2.094.906.834 0 1.467-.33 1.898-.991.43-.661.646-1.616.646-2.865 0-2.517-.862-3.776-2.584-3.776zM97.658 11.496v1.292l-1.893.35c.174.234.317.521.43.862.114.34.171.7.171 1.081 0 1.142-.394 2.04-1.182 2.694-.788.655-1.873.982-3.255.982-.354 0-.674-.027-.961-.08-.508.314-.761.68-.761 1.101 0 .254.118.445.355.571.237.127.673.19 1.307.19h1.933c1.222 0 2.15.261 2.784.782.635.52.952 1.272.952 2.253 0 1.256-.518 2.224-1.553 2.905-1.035.68-2.53 1.021-4.486 1.021-1.51 0-2.661-.267-3.456-.8-.794-.535-1.192-1.296-1.192-2.284 0-.681.216-1.254.646-1.718.431-.464 1.034-.786 1.808-.967a1.769 1.769 0 0 1-.776-.646 1.63 1.63 0 0 1-.305-.936c0-.414.116-.764.35-1.052.234-.287.58-.57 1.042-.85a3.085 3.085 0 0 1-1.397-1.208c-.358-.557-.536-1.21-.536-1.958 0-1.202.379-2.133 1.136-2.794.758-.661 1.838-.992 3.24-.992.314 0 .643.022.987.066.344.043.602.088.776.135h3.836zm-8.703 12.8c0 .507.228.897.686 1.171.457.274 1.1.41 1.928.41 1.282 0 2.236-.183 2.864-.55.628-.367.941-.855.941-1.462 0-.481-.171-.823-.515-1.027-.344-.203-.983-.305-1.918-.305h-1.783c-.674 0-1.21.158-1.607.475-.398.318-.596.747-.596 1.287zm1.011-9.215c0 .695.179 1.229.536 1.603.357.374.87.56 1.537.56 1.362 0 2.043-.727 2.043-2.183 0-.72-.168-1.277-.505-1.667-.337-.39-.85-.586-1.538-.586-.68 0-1.196.193-1.547.58-.35.388-.526.952-.526 1.693zM82.314 21.32c0-.487.127-.86.381-1.12.254-.261.621-.391 1.102-.391.487 0 .858.135 1.111.405.254.27.381.64.381 1.107 0 .474-.129.85-.386 1.127s-.626.415-1.106.415c-.481 0-.848-.137-1.102-.41-.254-.274-.38-.651-.38-1.132zM74.434 22.573l-.47-1.543h-.08c-.535.675-1.072 1.134-1.613 1.378-.541.243-1.235.365-2.083.365-1.089 0-1.938-.294-2.55-.881-.61-.588-.916-1.42-.916-2.494 0-1.142.424-2.003 1.272-2.584.848-.58 2.14-.898 3.876-.952l1.913-.06v-.59c0-.708-.165-1.237-.496-1.588-.33-.35-.843-.526-1.537-.526-.567 0-1.112.084-1.632.25a12.32 12.32 0 0 0-1.503.592l-.76-1.683a8.192 8.192 0 0 1 1.972-.716 9.08 9.08 0 0 1 2.023-.246c1.409 0 2.472.308 3.19.922.718.614 1.077 1.579 1.077 2.894v7.462h-1.683zM70.93 20.97c.854 0 1.54-.238 2.058-.716.517-.477.776-1.147.776-2.008v-.961l-1.422.06c-1.108.04-1.915.225-2.419.556-.504.33-.756.836-.756 1.517 0 .494.147.876.44 1.147.295.27.735.405 1.323.405zM62.193 22.773c-1.676 0-2.95-.489-3.821-1.467-.872-.978-1.307-2.382-1.307-4.212 0-1.862.455-3.295 1.367-4.296.911-1.002 2.228-1.503 3.95-1.503 1.17 0 2.221.217 3.156.651l-.711 1.893c-.995-.387-1.816-.58-2.464-.58-1.916 0-2.875 1.271-2.875 3.815 0 1.242.24 2.175.717 2.8.477.624 1.176.936 2.098.936a6.02 6.02 0 0 0 2.974-.781v2.053c-.42.247-.87.424-1.347.53-.477.108-1.056.161-1.737.161zM43.72 22.573h-2.353V6.989h2.353zM80.365 22.573H78.01V6.989h2.354zM133.934 22.573l-.47-1.543h-.08c-.535.675-1.072 1.134-1.613 1.378-.541.243-1.235.365-2.083.365-1.089 0-1.938-.294-2.55-.881-.61-.588-.916-1.42-.916-2.494 0-1.142.424-2.003 1.272-2.584.848-.58 2.14-.898 3.876-.952l1.913-.06v-.59c0-.708-.165-1.237-.496-1.588-.33-.35-.843-.526-1.537-.526-.567 0-1.112.084-1.632.25a12.32 12.32 0 0 0-1.503.592l-.76-1.683a8.192 8.192 0 0 1 1.972-.716 9.08 9.08 0 0 1 2.023-.246c1.409 0 2.472.308 3.19.922.718.614 1.077 1.579 1.077 2.894v7.462h-1.683zm-3.505-1.603c.854 0 1.54-.238 2.058-.716.517-.477.776-1.147.776-2.008v-.961l-1.422.06c-1.108.04-1.915.225-2.419.556-.504.33-.756.836-.756 1.517 0 .494.147.876.44 1.147.295.27.735.405 1.323.405zM139.865 22.573h-2.354V6.989h2.354zM101.331 22.573h-2.353V6.989h2.353zM55.777 17.014c0 1.81-.464 3.222-1.392 4.237-.928 1.015-2.22 1.522-3.876 1.522-1.035 0-1.95-.234-2.744-.701-.795-.467-1.406-1.138-1.833-2.013-.427-.875-.64-1.89-.64-3.045 0-1.796.46-3.198 1.381-4.206.922-1.008 2.22-1.513 3.896-1.513 1.603 0 2.871.516 3.806 1.548.935 1.031 1.402 2.422 1.402 4.171zm-8.062 0c0 2.558.945 3.836 2.834 3.836 1.87 0 2.804-1.278 2.804-3.836 0-2.53-.941-3.796-2.824-3.796-.988 0-1.704.328-2.148.982-.444.654-.666 1.592-.666 2.814zM113.388 17.014c0 1.81-.464 3.222-1.392 4.237-.928 1.015-2.22 1.522-3.876 1.522-1.035 0-1.95-.234-2.744-.701-.795-.467-1.405-1.138-1.833-2.013-.427-.875-.64-1.89-.64-3.045 0-1.796.46-3.198 1.381-4.206.922-1.008 2.22-1.513 3.896-1.513 1.603 0 2.871.516 3.806 1.548.935 1.031 1.402 2.422 1.402 4.171zm-8.062 0c0 2.558.945 3.836 2.834 3.836 1.87 0 2.805-1.278 2.805-3.836 0-2.53-.942-3.796-2.825-3.796-.988 0-1.704.328-2.148.982-.444.654-.666 1.592-.666 2.814z"/>
    </g>
</svg>
