<svg xmlns="http://www.w3.org/2000/svg" width="18" height="20" viewBox="0 0 18 20">
    <path fill="#3E4049" fill-rule="evenodd" d="M3.002 7.12C3 6.694 3 6.267 3.008 5.84A6.007 6.007 0 0 1 4.03 2.642 6.035 6.035 0 0 1 6.533.53 6.07 6.07 0 0 1 9.074 0c.665.013 1.32.126 1.947.35a6.025 6.025 0 0 1 3.123 2.567 6.007 6.007 0 0 1 .85 3.074V7.12a3.977 3.977 0 0 1 2.144 1.403c.28.355.498.758.643 1.186.13.382.194.777.209 1.18.022 1.7.001 3.402.001 5.104-.006.434-.07.863-.21 1.275a4.001 4.001 0 0 1-3.683 2.713c-3.366.044-6.733.002-10.1.002a4.127 4.127 0 0 1-1.274-.21A4.002 4.002 0 0 1 .01 16.088C-.012 14.387.01 12.685.01 10.983c.005-.434.07-.863.21-1.275A4.001 4.001 0 0 1 3.002 7.12zm1.01 1.872c-.238.003-.47.039-.694.12-.548.201-.99.644-1.19 1.191a2.06 2.06 0 0 0-.12.635c-.022 1.7-.022 3.4 0 5.1.007.2.04.398.104.588a2.018 2.018 0 0 0 1.16 1.22c.218.085.447.128.68.137 3.365.043 6.73.043 10.095 0 .234-.01.463-.052.68-.138a2.017 2.017 0 0 0 1.161-1.219 2.07 2.07 0 0 0 .104-.589c.022-1.7.022-3.4 0-5.1-.007-.2-.04-.398-.104-.588a2.017 2.017 0 0 0-1.16-1.219 2.059 2.059 0 0 0-.68-.138c-3.346-.043-6.691 0-10.037 0zm5.987 2.997a1 1 0 0 0-1.998 0v2.997a.999.999 0 1 0 1.998 0V11.99zm3.004-5.007c.002-.379.002-.758-.01-1.137a4.054 4.054 0 0 0-.38-1.558 4.014 4.014 0 0 0-1.646-1.771c-1.033-.585-2.324-.686-3.43-.242A4.02 4.02 0 0 0 5.357 4.35a4.05 4.05 0 0 0-.352 1.647v.985a394.6 394.6 0 0 1 7.999 0z"/>
</svg>
