<svg xmlns="http://www.w3.org/2000/svg" width="20" height="15" viewBox="0 0 20 15">
    <path fill="#3E4049" fill-rule="evenodd" d="M16.095.038a3.987 3.987 0 0 1 1.363.275 4.022 4.022 0 0 1 2.286 2.337c.15.409.225.835.242 1.268.03 2.36.001 4.721.001 7.082a4.11 4.11 0 0 1-.21 1.27 3.994 3.994 0 0 1-3.682 2.706c-4.031.053-8.063.002-12.094.002a4.134 4.134 0 0 1-1.275-.21 4.004 4.004 0 0 1-2.437-2.314 3.964 3.964 0 0 1-.276-1.359c-.029-2.36 0-4.72 0-7.08.004-.434.07-.861.21-1.272A3.985 3.985 0 0 1 2.541.313 3.989 3.989 0 0 1 3.905.038c4.063-.05 8.127-.05 12.19 0zM2.099 3.43a2.095 2.095 0 0 0-.089.539c-.029 2.358-.029 4.718 0 7.076.009.217.046.43.12.633.195.53.619.962 1.145 1.17.218.085.447.128.68.137 4.03.052 8.06.052 12.089 0 .217-.009.43-.046.635-.12.547-.2.99-.642 1.19-1.187.075-.204.112-.417.12-.633.03-2.359.03-4.718 0-7.076a2.102 2.102 0 0 0-.088-.538c-1.777 1.557-3.544 3.126-5.342 4.658-.072.059-.071.059-.145.116a4.128 4.128 0 0 1-1.114.593 4.034 4.034 0 0 1-2.934-.131 4.132 4.132 0 0 1-.993-.634L2.1 3.43zm14.32-1.355a2.19 2.19 0 0 0-.375-.046c-4.01-.05-8.02 0-12.03 0a2.21 2.21 0 0 0-.44.047c1.714 1.52 3.404 3.069 5.182 4.514a2.019 2.019 0 0 0 2.019.277c.2-.084.38-.201.544-.341l5.1-4.451z"/>
</svg>
