<svg xmlns="http://www.w3.org/2000/svg" width="20" height="20" viewBox="0 0 20 20">
    <path fill="#FFF" fill-rule="evenodd" d="M11 9v6a1 1 0 1 1-2 0V9a1 1 0 1 1 2 0zm0-4v.001a.999.999 0 0 1-.999.999h-.027A.974.974 0 0 1 9 5.026v-.052A.974.974 0 0 1 9.974 4H10a1 1 0 0 1 1 1zm-.87-5l.128.003.128.004.128.006.128.007.127.01.127.01.126.012.126.013.125.015.125.017.124.018.124.02.123.021.123.023.122.024.122.026.121.027.12.029.12.03.12.032.12.033.118.034.117.036.117.037.117.039.116.04.115.041.114.043.114.044.113.046.113.046.112.048.11.05.111.05.11.053.109.053.108.055.107.056.107.057.106.058.105.06.104.06.104.063.102.063.102.064.101.066.1.067.1.068.098.069.098.07.097.072.095.072.095.074.094.075.093.076.092.077.092.078.09.079.09.08.088.081.087.083.086.083.086.084.084.086.083.086.083.087.08.089.081.089.08.09.077.091.077.093.076.093.075.094.074.095.072.095.072.097.07.098.07.098.067.1.067.1.066.1.064.103.063.102.063.104.06.104.06.105.058.106.057.107.056.107.055.108.053.11.052.109.051.11.05.111.048.112.046.113.046.113.044.114.043.114.041.115.04.116.039.117.037.117.036.117.034.119.033.119.032.12.03.12.029.12.027.121.026.122.024.122.023.123.02.123.02.124.019.124.017.125.015.125.013.126.012.126.01.127.01.127.007.128.006.128.004.128.002.129L20 10v.13l-.003.128-.004.128-.006.128-.007.128-.01.127-.01.127-.012.126-.013.126-.015.125-.017.125-.018.124-.02.124-.021.123-.023.123-.024.122-.026.122-.027.121-.029.12-.03.12-.032.12-.033.12-.034.118-.036.117-.037.117-.039.117-.04.116-.041.115-.043.114-.044.114-.046.113-.046.113-.048.112-.05.11-.05.111-.053.11-.053.109-.055.108-.056.107-.057.107-.058.106-.06.105-.06.104-.063.104-.063.102-.064.102-.066.101-.067.1-.068.1-.069.098-.07.098-.072.097-.072.095-.074.095-.075.094-.076.093-.077.093-.078.09-.079.091-.08.09-.081.088-.083.087-.083.086-.084.086-.086.084-.086.083-.087.083-.089.08-.089.081-.09.08-.091.077-.093.077-.093.076-.094.075-.095.074-.095.072-.097.072-.098.07-.098.07-.1.067-.1.067-.1.066-.103.064-.102.063-.104.063-.104.06-.105.06-.106.058-.107.057-.107.056-.108.055-.11.053-.109.052-.11.051-.111.05-.112.048-.113.046-.113.046-.114.044-.114.043-.115.041-.116.04-.117.039-.117.037-.117.036-.119.034-.119.033-.12.032-.12.03-.12.029-.121.027-.122.026-.122.024-.123.023-.123.02-.124.02-.124.019-.125.017-.125.015-.126.013-.126.012-.127.01-.127.01-.128.007-.128.006-.128.004-.129.002L10 20h-.13l-.128-.003-.128-.004-.128-.006-.128-.007-.127-.01-.127-.01-.126-.012-.126-.013-.125-.015-.125-.017-.124-.018-.124-.02-.123-.021-.123-.023-.122-.024-.122-.026-.121-.027-.12-.029-.12-.03-.12-.032-.12-.033-.118-.034-.117-.036-.117-.037-.117-.039-.116-.04-.115-.041-.114-.043-.114-.044-.113-.046-.113-.046-.112-.048-.11-.05-.111-.05-.11-.053-.109-.053-.108-.055-.107-.056-.107-.057-.106-.058-.105-.06-.104-.06-.104-.063-.102-.063-.102-.064-.101-.066-.1-.067-.1-.068-.098-.069-.098-.07-.097-.072-.095-.072-.095-.074-.094-.075-.093-.076-.092-.077-.092-.078-.09-.079-.09-.08-.088-.081-.087-.083-.086-.083-.086-.084-.084-.086-.083-.086-.083-.087-.08-.089-.081-.089-.08-.09-.077-.091-.077-.093-.076-.093-.075-.094-.074-.095-.072-.095-.072-.097-.07-.098-.07-.098-.067-.1-.067-.1-.066-.1-.064-.103-.063-.102-.063-.104-.06-.104-.06-.105-.058-.106-.057-.107-.056-.107-.055-.108-.053-.11-.052-.109-.051-.11-.05-.111-.048-.112-.046-.113-.046-.113-.044-.114-.043-.114-.041-.115-.04-.116-.039-.117-.037-.117-.036-.117-.034-.119-.033-.119-.032-.12-.03-.12-.029-.12-.027-.121-.026-.122-.024-.122-.023-.123-.02-.123-.02-.124-.019-.124-.017-.125-.015-.125-.013-.126-.012-.126-.01-.127-.01-.127-.007-.128-.006-.128-.004-.128-.002-.129L0 10v-.13l.003-.128.004-.128.006-.128.007-.128.01-.127.01-.127.012-.126.013-.126.015-.125.017-.125.018-.124.02-.124.021-.123.023-.123.024-.122.026-.122.027-.121.029-.12.03-.12.032-.12.033-.12.034-.118.036-.117.037-.117.039-.117.04-.116.041-.115.043-.114.044-.114.046-.113.046-.113.049-.112.049-.11.05-.111.053-.11.053-.109.055-.108.056-.107.057-.107.058-.106.06-.105.06-.104.063-.104.063-.102.064-.102.066-.101.067-.1.068-.1.069-.098.07-.098.072-.097.072-.095.074-.095.075-.094.076-.093.077-.093.078-.09.079-.091.08-.09.081-.088.083-.087.083-.086.084-.086.086-.084.086-.083.087-.083.089-.08.089-.081.09-.08.092-.077.092-.077.093-.076.094-.075.095-.074.095-.072.097-.072.098-.07.098-.07.1-.067.1-.067.1-.066.103-.064.102-.063.104-.063.104-.06.105-.06.106-.058.107-.057.107-.056.108-.055.11-.053.109-.052.11-.051.111-.05.112-.048.113-.046.113-.046.114-.044.114-.043.115-.041.116-.04.117-.039.117-.037.117-.036.119-.034.119-.033.12-.032.12-.03.12-.029.121-.027.122-.026.122-.024.123-.023.123-.02.124-.02.124-.019.125-.017.125-.015.126-.013.126-.012.127-.01.127-.01.128-.007.128-.006.128-.004.129-.002L10 0h.13zm-.234 2l-.103.003-.103.003-.103.005-.102.005-.102.007-.102.009-.1.01-.101.01-.1.012-.1.014-.1.014-.098.016-.1.017-.097.018-.098.02-.097.02-.097.022-.096.023L8 2.252l-.096.025-.094.026-.095.028-.094.028-.093.03-.093.031-.093.032-.092.033-.091.034-.091.035-.09.037-.09.037-.09.039-.088.04-.089.04-.087.041-.087.043-.087.044-.086.044-.085.046-.085.047-.084.047-.083.049-.083.05-.082.05-.082.052-.08.053-.08.053-.08.054-.079.056-.078.056-.077.057-.077.058-.076.06-.075.06-.075.06-.074.062-.073.062-.073.064-.071.064-.07.065-.07.066-.07.067-.068.068-.068.068-.067.07-.066.069-.065.07-.064.073-.064.072-.062.073-.062.074-.06.074-.06.076-.06.076-.058.077-.057.077-.056.078-.056.079-.054.08-.054.08-.052.08-.052.082-.05.082-.05.083-.049.084-.047.083-.047.085-.046.085-.044.086-.044.087-.043.087-.041.088-.04.088-.04.088-.039.09-.037.09-.036.09-.036.091-.034.091-.033.092-.032.093-.03.093-.03.093-.029.094-.028.095-.026.095L2.252 8l-.024.096-.023.096-.022.097-.02.097-.02.098-.018.098-.017.098-.016.1-.014.099-.014.1-.012.1-.01.1-.01.102-.008.1-.008.103-.005.102-.005.103-.003.103L2 9.896 2 10v.104l.003.103.003.103.005.103.005.102.008.102.008.101.01.101.01.101.012.1.014.1.014.1.016.099.017.098.018.098.02.098.02.097.022.097.023.096.024.096.025.095.026.095.028.095.029.094.03.093.03.093.032.093.033.091.034.092.036.091.036.09.037.09.039.09.04.088.04.088.041.088.043.087.044.087.044.086.046.085.047.085.047.083.05.084.049.083.05.082.052.081.052.081.054.08.054.08.056.079.056.078.057.077.059.077.058.076.06.076.061.074.062.074.062.073.064.072.064.072.065.071.066.07.067.069.068.068.068.068.07.067.07.066.07.065.071.064.073.064.073.062.074.062.075.06.075.06.076.06.077.058.077.057.078.056.079.056.08.054.08.053.08.053.082.052.082.05.083.05.083.049.084.047.085.047.085.046.086.044.087.044.087.043.087.041.089.04.088.04.09.039.09.037.09.037.09.035.092.034.092.033.093.032.093.03.093.03.094.03.095.027.094.026.096.025.096.024.096.023.097.022.097.02.098.02.098.018.098.017.1.016.099.014.1.014.1.012.1.01.101.01.102.009.102.007.102.005.103.005.103.003.103.002L10 18h.104l.103-.003.103-.003.103-.005.102-.005.102-.008.102-.008.1-.01.101-.01.1-.012.1-.014.1-.014.098-.016.1-.017.097-.018.098-.02.097-.02.097-.022.096-.023.096-.024.096-.025.094-.026.095-.028.094-.028.093-.03.093-.031.093-.032.092-.033.091-.034.091-.035.09-.037.09-.037.09-.039.088-.04.089-.04.087-.041.087-.043.087-.044.086-.044.085-.046.085-.047.084-.047.083-.049.083-.05.082-.05.082-.052.08-.053.08-.053.08-.054.079-.056.078-.056.077-.057.077-.058.076-.06.076-.06.074-.06.074-.062.073-.062.072-.064.072-.064.07-.065.07-.066.07-.067.068-.068.068-.068.067-.07.066-.069.065-.07.064-.073.064-.072.062-.073.062-.074.06-.074.06-.076.06-.076.058-.077.057-.077.056-.078.056-.079.054-.08.054-.08.052-.08.052-.082.05-.082.05-.083.049-.084.047-.083.047-.085.046-.085.044-.086.044-.087.043-.087.041-.088.04-.088.04-.088.039-.09.037-.09.036-.09.036-.091.034-.091.033-.092.032-.093.03-.093.03-.093.029-.094.028-.095.026-.095.025-.095.024-.096.023-.096.022-.097.02-.097.02-.098.018-.098.017-.098.016-.1.014-.099.014-.1.012-.1.01-.1.01-.102.009-.1.007-.103.005-.102.005-.103.003-.103.002-.103L18 10v-.104l-.003-.103-.003-.103-.005-.103-.005-.102-.008-.102-.008-.101-.01-.101-.01-.101-.012-.1-.014-.1-.014-.1-.016-.099-.017-.098-.018-.098-.02-.098-.02-.097-.022-.097-.023-.096L17.748 8l-.025-.095-.026-.095-.028-.095-.029-.094-.03-.093-.03-.093-.032-.093-.033-.091-.034-.092-.036-.091-.036-.09-.037-.09-.039-.09-.04-.088-.04-.088-.041-.088-.043-.087-.044-.087-.044-.086-.046-.085-.047-.085-.047-.083-.05-.084-.049-.083-.05-.082-.052-.081-.052-.081-.054-.08-.054-.08-.056-.079-.056-.078-.057-.077-.059-.077-.058-.076-.06-.076-.061-.074-.062-.074-.062-.073-.064-.072-.064-.072-.065-.071-.066-.07-.067-.069-.068-.068-.068-.068-.07-.067-.07-.066-.07-.065-.072-.064-.072-.064-.073-.062-.074-.062-.074-.06-.076-.06-.076-.06-.077-.058-.077-.057-.078-.056-.079-.056-.08-.054-.08-.053-.08-.053-.082-.052-.082-.05-.083-.05-.083-.049-.084-.047-.085-.047-.085-.046-.086-.044-.087-.044-.087-.043-.087-.041-.089-.04-.088-.04-.09-.039-.09-.037-.09-.037-.09-.035-.092-.034-.092-.033-.093-.032-.093-.03-.093-.03-.094-.03-.095-.027-.094-.026-.096-.025-.096-.024-.096-.023-.097-.022-.097-.02-.098-.02-.098-.018-.098-.017-.1-.016-.099-.014-.1-.014-.1-.012-.1-.01-.101-.01-.102-.009-.102-.007-.102-.005-.103-.005-.103-.003L10.104 2 10 2h-.104z"/>
</svg>
