<svg xmlns="http://www.w3.org/2000/svg" width="89" height="88" viewBox="0 0 89 88">
    <g fill="none" fill-rule="evenodd">
        <path fill="#0494FE" d="M20.217 0h48.566C79.512 0 88.21 8.698 88.21 19.426v48.567c0 10.729-8.698 19.426-19.427 19.426H20.217C9.488 87.419.79 78.722.79 67.993V19.426C.79 8.698 9.488 0 20.217 0z"/>
        <path fill="#FFF" fill-rule="nonzero" d="M44.5 72.85c16.093 0 29.14-13.047 29.14-29.14 0-16.094-13.047-29.14-29.14-29.14S15.36 27.616 15.36 43.71c0 16.093 13.047 29.14 29.14 29.14zm0 4.856c-18.776 0-33.996-15.22-33.996-33.996 0-18.776 15.22-33.997 33.996-33.997 18.776 0 33.996 15.22 33.996 33.997 0 18.775-15.22 33.996-33.996 33.996z"/>
        <path fill="#FFF" fill-rule="nonzero" d="M54.437 47.368c-1.053-1.04-2.368-1.04-3.414 0a199.81 199.81 0 0 0-2.381 2.388c-.215.22-.396.268-.658.12-.516-.281-1.066-.51-1.563-.818-2.314-1.456-4.252-3.327-5.97-5.433-.852-1.046-1.61-2.166-2.14-3.427-.107-.255-.087-.423.121-.63.798-.772 1.577-1.564 2.361-2.355 1.094-1.1 1.094-2.388-.006-3.495-.624-.63-1.248-1.247-1.872-1.878-.644-.644-1.281-1.294-1.932-1.931-1.053-1.027-2.368-1.027-3.414.006-.805.792-1.576 1.603-2.395 2.381-.758.718-1.14 1.597-1.22 2.623-.128 1.67.281 3.246.858 4.782 1.18 3.18 2.978 6.003 5.158 8.592 2.945 3.502 6.46 6.272 10.572 8.27 1.851.9 3.77 1.59 5.856 1.704 1.436.08 2.683-.282 3.683-1.402.684-.764 1.455-1.462 2.18-2.193 1.073-1.087 1.08-2.401.013-3.474a1032.749 1032.749 0 0 0-3.837-3.83z"/>
    </g>
</svg>
