<svg xmlns="http://www.w3.org/2000/svg" width="182" height="34" viewBox="0 0 182 34">
    <g fill="none" fill-rule="evenodd">
        <path fill="#3e4049" fill-rule="nonzero" d="M176.174 7.669h-.639v-3.16h-1.15v-.516h2.938v.516h-1.149zM179.611 7.669l-1.133-3.07h-.022c.03.456.045.884.045 1.282V7.67h-.579V3.993h.9l1.086 2.924h.016l1.117-2.924h.904V7.67h-.615V5.85a22.446 22.446 0 0 1 .04-1.247h-.021l-1.174 3.065h-.564zM46.396 13.261c-.896 0-1.551.275-1.964.824-.413.548-.62 1.425-.62 2.63v.351c0 1.352.206 2.331.616 2.937.41.605 1.078.908 2.007.908.78 0 1.383-.334 1.805-1.004.423-.669.634-1.623.634-2.86 0-1.246-.21-2.188-.629-2.827-.42-.64-1.035-.959-1.849-.959m.548 9.578c-1.345 0-2.389-.506-3.132-1.516h-.134c.09.937.134 1.506.134 1.707v4.548h-2.256V11.534h1.824c.051.208.157.703.318 1.486h.114c.704-1.125 1.761-1.687 3.17-1.687 1.326 0 2.358.503 3.097 1.507.74 1.003 1.11 2.412 1.11 4.226s-.377 3.23-1.129 4.247-1.791 1.526-3.116 1.526M61.578 22.667h-2.245v-6.77c0-.849-.163-1.482-.49-1.9-.326-.419-.845-.628-1.555-.628-.939 0-1.628.294-2.069.881-.44.588-.661 1.572-.661 2.952v5.465h-2.236V7.177h2.236v3.933c0 .63-.038 1.304-.114 2.02h.143c.304-.53.727-.942 1.27-1.234.541-.292 1.174-.438 1.897-.438 2.549 0 3.824 1.344 3.824 4.032v7.177zM65.025 17.075c0 2.566.903 3.85 2.706 3.85 1.785 0 2.678-1.284 2.678-3.85 0-2.54-.9-3.811-2.697-3.811-.943 0-1.627.328-2.05.985-.425.657-.637 1.599-.637 2.826m7.697 0c0 1.816-.443 3.234-1.328 4.253-.887 1.018-2.12 1.528-3.701 1.528-.988 0-1.862-.235-2.62-.704-.759-.47-1.341-1.143-1.75-2.021-.408-.878-.612-1.897-.612-3.056 0-1.803.44-3.211 1.32-4.223.88-1.012 2.12-1.519 3.72-1.519 1.53 0 2.74.518 3.633 1.554.892 1.036 1.338 2.432 1.338 4.188M83.3 22.667h-2.245v-6.845c0-.859-.163-1.5-.49-1.922-.326-.423-.845-.635-1.555-.635-.946 0-1.636.296-2.074.887-.438.59-.656 1.58-.656 2.969v5.546h-2.236V11.534h1.75l.315 1.46h.113a3.17 3.17 0 0 1 1.351-1.228 4.32 4.32 0 0 1 1.941-.433c2.524 0 3.786 1.359 3.786 4.077v7.257zM89.315 13.123c-.72 0-1.298.238-1.731.714-.435.476-.694 1.17-.777 2.081h4.842c-.013-.918-.225-1.613-.637-2.086-.411-.472-.977-.709-1.697-.709m.414 9.733c-1.658 0-2.956-.505-3.892-1.514-.936-1.008-1.404-2.397-1.404-4.167 0-1.817.435-3.244 1.303-4.283.868-1.04 2.061-1.559 3.579-1.559 1.408 0 2.52.446 3.337 1.337.817.892 1.226 2.119 1.226 3.68v1.277h-7.11c.032 1.08.312 1.909.84 2.489.527.58 1.27.87 2.228.87.63 0 1.217-.063 1.76-.187a8.99 8.99 0 0 0 1.751-.618v1.92a6.768 6.768 0 0 1-1.679.584 9.873 9.873 0 0 1-1.939.17M95.751 20.22c.242-.258.592-.387 1.05-.387.464 0 .817.135 1.059.402.241.268.362.632.362 1.095 0 .468-.123.84-.368 1.114-.244.274-.595.412-1.053.412-.458 0-.808-.136-1.05-.406-.241-.271-.362-.645-.362-1.12 0-.482.12-.852.362-1.11zM106.893 21.986c-.767.58-1.867.87-3.298.87-1.438 0-2.592-.225-3.464-.674v-2.041c1.269.603 2.449.905 3.542.905 1.411 0 2.117-.439 2.117-1.317 0-.281-.078-.516-.234-.704-.156-.188-.413-.382-.77-.583-.358-.201-.856-.43-1.494-.684-1.242-.496-2.082-.992-2.522-1.488-.439-.496-.659-1.14-.659-1.93 0-.952.373-1.691 1.118-2.217.745-.526 1.758-.79 3.04-.79a8.39 8.39 0 0 1 3.6.795l-.741 1.78c-1.165-.496-2.144-.744-2.938-.744-1.21 0-1.815.355-1.815 1.065 0 .349.158.644.474.885.315.241 1.003.573 2.063.996.891.355 1.539.68 1.942.974.403.295.702.635.898 1.021.195.385.292.847.292 1.383 0 1.085-.383 1.918-1.151 2.498zM108.611 11.333h2.423l2.128 6.226c.322.887.537 1.721.644 2.503h.076c.057-.365.16-.807.312-1.326.151-.52.952-2.988 2.403-7.403H119l-4.475 12.442c-.814 2.284-2.17 3.425-4.069 3.425-.492 0-.971-.056-1.438-.169v-1.846c.335.079.716.119 1.145.119 1.072 0 1.826-.652 2.26-1.956l.389-1.033-4.2-10.982zM126.348 21.986c-.767.58-1.866.87-3.297.87-1.438 0-2.593-.225-3.464-.674v-2.041c1.268.603 2.449.905 3.542.905 1.41 0 2.117-.439 2.117-1.317 0-.281-.078-.516-.234-.704-.156-.188-.413-.382-.771-.583-.358-.201-.855-.43-1.493-.684-1.242-.496-2.084-.992-2.522-1.488-.44-.496-.66-1.14-.66-1.93 0-.952.374-1.691 1.118-2.217.745-.526 1.759-.79 3.04-.79a8.39 8.39 0 0 1 3.6.795l-.74 1.78c-1.166-.496-2.145-.744-2.939-.744-1.21 0-1.814.355-1.814 1.065 0 .349.157.644.473.885.315.241 1.004.573 2.064.996.891.355 1.538.68 1.942.974.403.295.702.635.897 1.021.196.385.293.847.293 1.383 0 1.085-.384 1.918-1.152 2.498zM134.867 20.705v1.753a4.407 4.407 0 0 1-.96.284 6.401 6.401 0 0 1-1.215.114c-2.123 0-3.185-1.164-3.185-3.49v-5.908h-1.44v-1.03l1.545-.852.763-2.32h1.383v2.438h3.004v1.764h-3.004v5.869c0 .562.135.976.405 1.243.27.268.624.402 1.063.402.547 0 1.093-.09 1.64-.267zM140.126 13.123c-.72 0-1.298.238-1.731.714-.435.476-.694 1.17-.777 2.081h4.842c-.013-.918-.225-1.613-.636-2.086-.412-.472-.978-.709-1.698-.709m.415 9.733c-1.66 0-2.957-.505-3.893-1.514-.935-1.008-1.404-2.397-1.404-4.167 0-1.817.435-3.244 1.303-4.283.869-1.04 2.061-1.559 3.579-1.559 1.408 0 2.52.446 3.337 1.337.817.892 1.226 2.119 1.226 3.68v1.277h-7.11c.032 1.08.312 1.909.84 2.489.527.58 1.27.87 2.228.87.63 0 1.217-.063 1.76-.187a8.99 8.99 0 0 0 1.751-.618v1.92a6.768 6.768 0 0 1-1.678.584 9.873 9.873 0 0 1-1.94.17M154.786 22.667h-2.27v-6.865c0-.852-.153-1.488-.46-1.907-.31-.42-.79-.63-1.444-.63-.871 0-1.511.298-1.918.891-.408.594-.611 1.582-.611 2.965v5.546h-2.26V11.534h1.77l.316 1.46h.116a3 3 0 0 1 1.284-1.228 3.993 3.993 0 0 1 1.852-.433c1.634 0 2.718.584 3.25 1.751h.154c.314-.55.757-.98 1.328-1.288.57-.309 1.224-.463 1.961-.463 1.27 0 2.195.335 2.776 1.007.58.67.87 1.694.87 3.07v7.257h-2.26v-6.865c0-.852-.156-1.488-.467-1.907-.311-.42-.793-.63-1.447-.63-.879 0-1.521.288-1.929.861-.407.574-.61 1.455-.61 2.642v5.899zM170.756 19.488c0 1.085-.384 1.918-1.152 2.498-.767.58-1.867.87-3.298.87-1.437 0-2.592-.225-3.464-.674v-2.041c1.269.603 2.45.905 3.542.905 1.411 0 2.117-.439 2.117-1.317 0-.281-.078-.516-.234-.704-.156-.188-.413-.382-.77-.583-.358-.201-.856-.43-1.494-.684-1.242-.496-2.082-.992-2.522-1.488-.439-.496-.659-1.14-.659-1.93 0-.952.373-1.691 1.118-2.217.745-.526 1.758-.79 3.04-.79a8.39 8.39 0 0 1 3.6.795l-.741 1.78c-1.165-.496-2.144-.744-2.938-.744-1.21 0-1.815.355-1.815 1.065 0 .349.158.644.474.885.315.241 1.003.573 2.063.996.892.355 1.539.68 1.942.974.403.295.702.635.898 1.021.195.385.293.847.293 1.383"/>
        <path fill="#0494FE" d="M7.556 0h18.888A7.556 7.556 0 0 1 34 7.556v18.888A7.556 7.556 0 0 1 26.444 34H7.556A7.556 7.556 0 0 1 0 26.444V7.556A7.556 7.556 0 0 1 7.556 0z"/>
        <path fill="#FFF" fill-rule="nonzero" d="M17 28.333c6.26 0 11.333-5.074 11.333-11.333 0-6.26-5.074-11.333-11.333-11.333C10.74 5.667 5.667 10.74 5.667 17c0 6.26 5.074 11.333 11.333 11.333zm0 1.89c-7.302 0-13.222-5.92-13.222-13.223C3.778 9.698 9.698 3.778 17 3.778S30.222 9.698 30.222 17 24.302 30.222 17 30.222z"/>
        <path fill="#FFF" fill-rule="nonzero" d="M20.865 18.423c-.41-.405-.921-.405-1.328 0-.31.308-.621.615-.926.928-.084.087-.154.105-.256.047-.2-.11-.415-.198-.608-.318-.9-.566-1.654-1.294-2.322-2.113-.331-.407-.626-.842-.832-1.333-.042-.099-.034-.164.047-.245.31-.3.613-.608.918-.916.426-.428.426-.928-.002-1.359l-.728-.73c-.25-.25-.498-.504-.751-.752-.41-.399-.921-.399-1.328.003-.313.308-.613.623-.932.926-.295.28-.443.62-.475 1.02-.05.65.11 1.263.334 1.86.46 1.237 1.159 2.335 2.007 3.342a12.415 12.415 0 0 0 4.111 3.216c.72.35 1.466.619 2.278.663.558.031 1.043-.11 1.432-.545.266-.298.566-.569.848-.853.417-.423.42-.934.005-1.352-.496-.498-.994-.994-1.492-1.49z"/>
    </g>
</svg>
