<svg xmlns="http://www.w3.org/2000/svg" width="160" height="34" viewBox="0 0 160 34">
    <g fill="none" fill-rule="evenodd">
        <path fill="#3E4049" d="M6.134 19.145c.65 0 1.3-.102 1.95-.306v2.007a5.379 5.379 0 0 1-1.14.323 7.85 7.85 0 0 1-1.445.13c-2.525 0-3.787-1.33-3.787-3.99V10.55H0V9.37l1.837-.974.907-2.654h1.644v2.79h3.571v2.018H4.388v6.712c0 .642.16 1.117.482 1.423.321.306.742.46 1.264.46zm5.591-3.738c.038 1.217.367 2.153.986 2.806.62.654 1.493.981 2.62.981.74 0 1.43-.07 2.069-.21.638-.14 1.324-.372 2.058-.697v2.166a8.18 8.18 0 0 1-1.973.657c-.665.129-1.425.193-2.28.193-1.95 0-3.474-.569-4.574-1.706-1.1-1.138-1.65-2.705-1.65-4.7 0-2.048.51-3.658 1.53-4.83 1.021-1.172 2.423-1.758 4.207-1.758 1.656 0 2.963.503 3.923 1.508.96 1.006 1.44 2.389 1.44 4.15v1.44h-8.356zm2.993-5.08c-.846 0-1.525.269-2.035.806-.51.536-.814 1.319-.913 2.347h5.692c-.015-1.036-.265-1.82-.748-2.353-.484-.533-1.15-.8-1.996-.8zm6.666 10.92V3.605h2.664v17.642h-2.664zm6.592-5.84c.038 1.217.367 2.153.987 2.806.62.654 1.493.981 2.619.981.74 0 1.43-.07 2.07-.21.638-.14 1.324-.372 2.057-.697v2.166c-.65.31-1.308.529-1.973.657-.665.129-1.424.193-2.279.193-1.95 0-3.475-.569-4.575-1.706-1.1-1.138-1.65-2.705-1.65-4.7 0-2.048.51-3.658 1.531-4.83 1.02-1.172 2.423-1.758 4.207-1.758 1.655 0 2.963.503 3.923 1.508.96 1.006 1.44 2.389 1.44 4.15v1.44h-8.357zm2.994-5.08c-.847 0-1.525.269-2.035.806-.51.536-.815 1.319-.913 2.347h5.692c-.016-1.036-.265-1.82-.749-2.353-.483-.533-1.149-.8-1.995-.8zm12.043 10.976c-1.898 0-3.34-.554-4.326-1.661-.986-1.107-1.48-2.697-1.48-4.768 0-2.109.517-3.73 1.548-4.864 1.032-1.134 2.523-1.7 4.473-1.7 1.323 0 2.514.245 3.572.736l-.805 2.143c-1.127-.438-2.056-.657-2.79-.657-2.169 0-3.254 1.44-3.254 4.32 0 1.406.27 2.462.811 3.169.54.706 1.332 1.06 2.375 1.06 1.187 0 2.31-.295 3.368-.885v2.325a5.26 5.26 0 0 1-1.525.6c-.54.122-1.196.182-1.967.182zm16.33-6.52c0 2.049-.526 3.648-1.576 4.797-1.05 1.149-2.514 1.723-4.388 1.723-1.172 0-2.207-.265-3.107-.794-.9-.529-1.59-1.288-2.075-2.279-.483-.99-.725-2.139-.725-3.446 0-2.034.521-3.621 1.564-4.762 1.043-1.142 2.514-1.713 4.41-1.713 1.815 0 3.251.584 4.31 1.752 1.058 1.168 1.587 2.742 1.587 4.723zm-9.127 0c0 2.896 1.069 4.343 3.208 4.343 2.117 0 3.175-1.447 3.175-4.342 0-2.865-1.066-4.298-3.197-4.298-1.12 0-1.93.37-2.432 1.112-.503.74-.754 1.802-.754 3.186zm21.08 6.293h-2.675v-7.732c0-.96-.182-1.677-.544-2.149-.363-.472-.93-.709-1.701-.709-1.028 0-1.782.335-2.262 1.004s-.72 1.782-.72 3.339v6.247H60.73V8.536h2.086l.374 1.644h.136c.348-.597.852-1.058 1.513-1.383a4.881 4.881 0 0 1 2.183-.488c1.928 0 3.205.658 3.833 1.973h.18c.371-.62.893-1.103 1.565-1.451.673-.348 1.444-.522 2.314-.522 1.496 0 2.587.378 3.27 1.134.685.756 1.027 1.909 1.027 3.458v8.175h-2.665v-7.732c0-.96-.183-1.677-.55-2.149-.366-.472-.935-.709-1.706-.709-1.036 0-1.793.324-2.273.97-.48.646-.72 1.638-.72 2.976v6.644zm9.32-1.432c0-.552.144-.975.431-1.27.287-.294.703-.442 1.247-.442.552 0 .972.153 1.259.46.287.305.43.723.43 1.252 0 .537-.145.962-.436 1.276-.29.313-.708.47-1.253.47-.544 0-.96-.155-1.247-.465-.287-.31-.43-.737-.43-1.28zm9.44 1.659c-1.897 0-3.338-.554-4.325-1.661-.986-1.107-1.48-2.697-1.48-4.768 0-2.109.516-3.73 1.548-4.864s2.523-1.7 4.473-1.7c1.323 0 2.513.245 3.572.736l-.805 2.143c-1.127-.438-2.056-.657-2.79-.657-2.169 0-3.254 1.44-3.254 4.32 0 1.406.27 2.462.811 3.169.54.706 1.332 1.06 2.375 1.06a6.815 6.815 0 0 0 3.368-.885v2.325c-.476.28-.985.48-1.525.6-.54.122-1.196.182-1.967.182zm6.99-5.896c.037 1.217.366 2.153.986 2.806.62.654 1.493.981 2.62.981.74 0 1.43-.07 2.068-.21a10.84 10.84 0 0 0 2.058-.697v2.166a8.18 8.18 0 0 1-1.973.657c-.665.129-1.424.193-2.279.193-1.95 0-3.475-.569-4.575-1.706-1.1-1.138-1.65-2.705-1.65-4.7 0-2.048.511-3.658 1.532-4.83 1.02-1.172 2.422-1.758 4.206-1.758 1.655 0 2.963.503 3.923 1.508.96 1.006 1.44 2.389 1.44 4.15v1.44h-8.356zm2.993-5.08c-.847 0-1.525.269-2.035.806-.51.536-.815 1.319-.913 2.347h5.692c-.015-1.036-.265-1.82-.749-2.353-.483-.533-1.149-.8-1.995-.8zm17.483 10.75h-2.675v-7.71c0-.968-.195-1.69-.584-2.166-.39-.477-1.008-.715-1.854-.715-1.126 0-1.95.333-2.472.998-.521.665-.782 1.78-.782 3.345v6.247h-2.664V8.536h2.086l.374 1.644h.136c.378-.597.915-1.058 1.61-1.383.695-.325 1.466-.488 2.313-.488 3.008 0 4.512 1.531 4.512 4.592v8.175zm7.077-1.932c.65 0 1.3-.102 1.95-.306v2.007a5.38 5.38 0 0 1-1.139.323 7.85 7.85 0 0 1-1.446.13c-2.524 0-3.787-1.33-3.787-3.99V10.55h-1.712V9.37l1.837-.974.907-2.654h1.644v2.79h3.572v2.018h-3.572v6.712c0 .642.16 1.117.482 1.423.321.306.743.46 1.264.46zm5.378-3.738c.038 1.217.366 2.153.986 2.806.62.654 1.493.981 2.62.981.74 0 1.43-.07 2.068-.21.64-.14 1.325-.372 2.058-.697v2.166a8.18 8.18 0 0 1-1.973.657c-.665.129-1.424.193-2.279.193-1.95 0-3.475-.569-4.575-1.706-1.1-1.138-1.65-2.705-1.65-4.7 0-2.048.51-3.658 1.531-4.83 1.02-1.172 2.423-1.758 4.207-1.758 1.655 0 2.963.503 3.923 1.508.96 1.006 1.44 2.389 1.44 4.15v1.44h-8.356zm2.993-5.08c-.847 0-1.525.269-2.035.806-.51.536-.815 1.319-.913 2.347h5.692c-.015-1.036-.265-1.82-.749-2.353-.483-.533-1.148-.8-1.995-.8zm12.812-2.018c.537 0 .98.038 1.327.114l-.261 2.483a5.034 5.034 0 0 0-1.18-.136c-1.065 0-1.929.348-2.59 1.043-.661.695-.992 1.599-.992 2.71v6.553h-2.665V8.536h2.087l.351 2.211h.136a4.97 4.97 0 0 1 1.627-1.78 3.867 3.867 0 0 1 2.16-.658zm7.685-4.148h-.723V.583h-1.3V0h3.324v.583h-1.3v3.578zm3.891 0L156.075.686h-.024c.035.516.051 1 .051 1.451v2.024h-.656V0h1.02l1.229 3.31h.017L158.978 0H160v4.16h-.696V2.104a25.412 25.412 0 0 1 .046-1.411h-.025l-1.328 3.469h-.639z"/>
        <circle cx="42.767" cy="29.693" r="4.277" fill="#F5A623"/>
        <circle cx="4.277" cy="29.693" r="4.277" fill="#0094FE"/>
        <circle cx="29.937" cy="29.693" r="4.277" fill="#00C75F"/>
        <circle cx="17.107" cy="29.693" r="4.277" fill="#FE4F67"/>
    </g>
</svg>
